<mxfile host="app.diagrams.net" modified="2024-06-27T12:49:28.956Z" agent="Mozilla/5.0 (Windows NT 10.0; Win64; x64) AppleWebKit/537.36 (KHTML, like Gecko) Chrome/126.0.0.0 Safari/537.36 Edg/126.0.0.0" version="24.5.2" etag="EjFk_6aXygG6IK-ZACeg" type="github">
  <diagram name="Page-1" id="ItZxkLu5m8KS6uopXuiw">
    <mxGraphModel>
      <root>
        <mxCell id="0" />
        <mxCell id="1" parent="0" />
      </root>
    </mxGraphModel>
  </diagram>
</mxfile>
